<svg id="Layer_1" data-name="Layer 1" xmlns="http://www.w3.org/2000/svg" viewBox="0 0 873.7 697.97"><defs><style>.cls-1{fill:#7a7eee;}.cls-2{fill:#302dc7;}.cls-3,.cls-4{fill:#ff7d95;}.cls-3{opacity:0.8;}</style></defs><title>logo</title><path class="cls-1" d="M489.13,157.25h-44c-20.38,0-37.55,14.83-40,34.54,0,0-49.81,192-49.81,311.37s49.05,312.36,49.05,312.36c2.91,19.28,19.88,33.56,39.87,33.56h44.89Z" transform="translate(-63 -151.11)"/><path class="cls-2" d="M484.6,157.25h44c20.38,0,37.55,14.83,40,34.54,0,0,49.81,192,49.81,311.37s-49,312.36-49,312.36c-2.91,19.28-19.88,33.56-39.87,33.56H484.6Z" transform="translate(-63 -151.11)"/><polyline class="cls-3" points="425.49 246.96 873.7 6.14 425.48 6.14 0 2.9 425.48 246.96"/><path class="cls-4" d="M936.7,157.25l-416.63-6.14a165.33,165.33,0,0,1-63.17,0L63,154,488.48,316.4Z" transform="translate(-63 -151.11)"/></svg>